# xmcd
#
# Track frame offsets: 
#        150
#        20871
#        37310
#        54866
#
# Disc length: 1164 seconds
#
# Revision: 1
# Processed by: cddbd v1.5.2PL0 Copyright (c) Steve Scherf et al.
# Submitted via: ExactAudioCopyFreeDBPlugin 1.0
#
DISCID=32048a04
DTITLE=The Suffers - Make Some Room (EP)
DYEAR=2014
DGENRE=Soul
TTITLE0=Make Some Room
TTITLE1=Stay
TTITLE2=Gwan
TTITLE3=Giver
EXTD=YEAR: 2014
EXTT0=
EXTT1=
EXTT2=
EXTT3=
PLAYORDER=
